<svg width="16" height="16" viewBox="0 0 16 16" fill="none" xmlns="http://www.w3.org/2000/svg">
<path d="M4.88723 0.511475H11.1775C13.5738 0.511475 15.5208 2.45847 15.5208 4.85476V11.145C15.5208 12.297 15.0632 13.4017 14.2487 14.2162C13.4342 15.0307 12.3294 15.4883 11.1775 15.4883H4.88723C2.49094 15.4883 0.543945 13.5413 0.543945 11.145V4.85476C0.543945 3.70285 1.00154 2.59812 1.81606 1.78359C2.63059 0.96907 3.73532 0.511475 4.88723 0.511475ZM4.73746 2.00916C4.02248 2.00916 3.33679 2.29318 2.83122 2.79875C2.32565 3.30432 2.04163 3.99001 2.04163 4.70499V11.2948C2.04163 12.785 3.24727 13.9906 4.73746 13.9906H11.3273C12.0423 13.9906 12.728 13.7066 13.2335 13.201C13.7391 12.6955 14.0231 12.0098 14.0231 11.2948V4.70499C14.0231 3.2148 12.8175 2.00916 11.3273 2.00916H4.73746ZM11.9638 3.13242C12.2121 3.13242 12.4501 3.23104 12.6257 3.40659C12.8012 3.58213 12.8998 3.82022 12.8998 4.06848C12.8998 4.31673 12.8012 4.55482 12.6257 4.73037C12.4501 4.90591 12.2121 5.00453 11.9638 5.00453C11.7155 5.00453 11.4774 4.90591 11.3019 4.73037C11.1264 4.55482 11.0277 4.31673 11.0277 4.06848C11.0277 3.82022 11.1264 3.58213 11.3019 3.40659C11.4774 3.23104 11.7155 3.13242 11.9638 3.13242ZM8.03237 4.25569C9.0254 4.25569 9.97775 4.65017 10.6799 5.35234C11.3821 6.05452 11.7766 7.00687 11.7766 7.9999C11.7766 8.99293 11.3821 9.94528 10.6799 10.6475C9.97775 11.3496 9.0254 11.7441 8.03237 11.7441C7.03934 11.7441 6.08699 11.3496 5.38481 10.6475C4.68264 9.94528 4.28816 8.99293 4.28816 7.9999C4.28816 7.00687 4.68264 6.05452 5.38481 5.35234C6.08699 4.65017 7.03934 4.25569 8.03237 4.25569ZM8.03237 5.75337C7.43655 5.75337 6.86514 5.99006 6.44384 6.41136C6.02253 6.83267 5.78584 7.40408 5.78584 7.9999C5.78584 8.59572 6.02253 9.16713 6.44384 9.58844C6.86514 10.0097 7.43655 10.2464 8.03237 10.2464C8.62819 10.2464 9.1996 10.0097 9.62091 9.58844C10.0422 9.16713 10.2789 8.59572 10.2789 7.9999C10.2789 7.40408 10.0422 6.83267 9.62091 6.41136C9.1996 5.99006 8.62819 5.75337 8.03237 5.75337Z" fill="#e1306c"/>
</svg>
