<svg width="15" height="16" viewBox="0 0 15 16" fill="none" xmlns="http://www.w3.org/2000/svg">
<path d="M1.80594 4.10821C2.80543 4.10821 3.60503 3.29612 3.60503 2.30911C3.60503 1.3221 2.79294 0.51001 1.80594 0.51001C0.818929 0.51001 0.00683594 1.3221 0.00683594 2.30911C0.00683594 3.29612 0.818929 4.10821 1.80594 4.10821ZM5.31668 5.47003V15.49H8.41513V10.5425C8.41513 9.23064 8.665 7.96878 10.2767 7.96878C11.8884 7.96878 11.8884 9.46803 11.8884 10.6174V15.49H14.9993V9.99276C14.9993 7.29411 14.4246 5.22015 11.2762 5.22015C9.76445 5.22015 8.75246 6.04474 8.34016 6.83185H8.30268V5.45753H5.32917L5.31668 5.47003ZM0.256711 5.47003H3.36765V15.49H0.256711V5.47003Z" fill="#0a66c2"/>
</svg>
