<svg width="486" height="160" viewBox="0 0 486 160" fill="none" xmlns="http://www.w3.org/2000/svg">
<g clip-path="url(#clip0_40000583_3291)">
<path d="M48.3193 109.331H0V154.939H48.3193V109.331Z" fill="#F363F7"/>
<path d="M112.371 138.871H64.0518V154.904H112.371V138.871Z" fill="#0077C9"/>
<path d="M112.371 110.144H64.0518V126.177H112.371V110.144Z" fill="#0077C9"/>
<path d="M150.29 154.939C162.634 154.939 172.641 144.913 172.641 132.547C172.641 120.18 162.634 110.155 150.29 110.155C137.946 110.155 127.938 120.18 127.938 132.547C127.938 144.913 137.946 154.939 150.29 154.939Z" fill="#FF7029"/>
<path d="M220.248 109.056H220.1H204.412H204.263H188.427V124.447H204.263H204.412H209.734L201.926 132.27L188.886 145.333L199.75 156.216L212.789 143.152L212.919 143.023L213.048 142.894L220.1 135.828V139.435V139.839V154.826H236.086V139.839V139.435V124.447V109.056H220.248Z" fill="#FFC62E"/>
<path d="M33.0365 26.7668C23.4824 26.7668 15.6604 29.8817 9.56624 36.1096C3.47209 42.3393 0.426758 50.115 0.426758 59.4359C0.425883 68.8409 3.51408 76.6377 9.69047 82.8253C15.8669 89.0129 24.0589 92.1059 34.2709 92.1059C46.1294 92.1059 55.1044 87.693 61.1977 78.8656L48.3524 71.4413C45.2213 75.5667 40.6109 77.6289 34.5176 77.6289C25.0475 77.6289 19.242 73.7516 17.1021 65.996H63.67C64.0812 63.6875 64.2877 61.5008 64.2877 59.4368C64.2877 50.1983 61.3429 42.4436 55.4561 36.1727C49.5676 29.9045 42.0947 26.7677 33.0374 26.7677L33.0365 26.7668ZM16.8546 53.6199C17.76 49.6602 19.6121 46.5874 22.4133 44.4007C25.2111 42.2157 28.7524 41.1211 33.0357 41.1211C36.6584 41.1211 39.8909 42.1535 42.7324 44.2158C45.573 46.2789 47.4461 49.413 48.3524 53.6199H16.8546Z" fill="black"/>
<path d="M121.849 35.8002C117.072 29.7791 110.36 26.7668 101.714 26.7668C93.068 26.7668 86.4166 29.922 80.5307 36.2332C74.6421 42.5444 71.6982 50.2781 71.6982 59.435C71.6974 68.5938 74.6403 76.3265 80.5298 82.6377C86.4157 88.9489 93.4783 92.105 101.713 92.105C110.359 92.105 117.071 89.0944 121.848 83.0716V90.3732H137.782V28.4996H121.849V35.8002H121.849ZM116.968 71.997C113.713 75.2555 109.618 76.884 104.677 76.884C99.7361 76.884 95.6611 75.2555 92.4495 71.997C89.238 68.7384 87.6326 64.5525 87.6326 59.4359C87.6326 54.3193 89.2388 50.1361 92.4495 46.8757C95.6611 43.618 99.7378 41.9887 104.679 41.9887C109.62 41.9887 113.715 43.618 116.97 46.8757C120.221 50.1361 121.848 54.3219 121.848 59.4359C121.848 64.5499 120.22 68.7384 116.968 71.997Z" fill="black"/>
<path d="M190.091 74.0996C187.577 75.544 184.717 76.2653 181.506 76.2653C176.729 76.2653 172.777 74.6781 169.647 71.5019C166.516 68.3266 164.954 64.3046 164.954 59.436C164.954 54.5674 166.517 50.4245 169.647 47.2475C172.776 44.0721 176.728 42.484 181.506 42.484C184.634 42.484 187.454 43.2264 189.967 44.7102C192.478 46.1957 194.353 48.2185 195.587 50.7742L209.298 42.7312C206.744 37.8644 202.998 33.9879 198.059 31.0992C193.118 28.2122 187.639 26.7678 181.63 26.7678C172.323 26.7678 164.563 29.9037 158.346 36.1728C152.126 42.4428 149.02 50.1984 149.02 59.4369C149.019 68.6771 152.126 76.4327 158.344 82.701C164.56 88.9718 172.321 92.106 181.628 92.106C187.638 92.106 193.116 90.6397 198.057 87.7124C202.997 84.7851 206.827 80.8867 209.545 76.019L195.711 68.0996C194.475 70.6579 192.602 72.6588 190.091 74.1005V74.0996Z" fill="black"/>
<path d="M252.285 26.7667C243.885 26.7667 237.75 29.6554 233.881 35.4285V3.74976H217.946V90.373H233.879V56.9616C233.879 51.8476 235.114 48.0114 237.585 45.4531C240.054 42.8965 243.347 41.617 247.466 41.617C251.172 41.617 254.137 42.7116 256.36 44.8966C258.584 47.0833 259.695 50.2393 259.695 54.3621V90.373H275.627V52.3831C275.628 44.3821 273.424 38.1121 269.02 33.5739C264.614 29.0375 259.034 26.7675 252.283 26.7675L252.285 26.7667Z" fill="black"/>
<path d="M305.15 0.0371094H289.216V90.3729H305.15V0.0371094Z" fill="black"/>
<path d="M327.632 1.39819C324.995 1.39819 322.71 2.38856 320.777 4.36843C318.841 6.34829 317.873 8.65857 317.873 11.2984C317.873 13.9382 318.84 16.2292 320.776 18.1661C322.71 20.1057 324.995 21.075 327.631 21.075C330.267 21.075 332.675 20.1057 334.611 18.1661C336.544 16.2292 337.513 13.9391 337.513 11.2984C337.513 8.6577 336.546 6.34917 334.611 4.36843C332.675 2.38856 330.35 1.39819 327.632 1.39819Z" fill="black"/>
<path d="M335.661 28.4993H319.727V90.3729H335.661V28.4993Z" fill="black"/>
<path d="M384.573 26.7668C376.173 26.7668 370.038 29.6556 366.169 35.4286V28.4987H350.234V90.3723H366.167V56.9609C366.167 51.8469 367.402 48.0107 369.873 45.4524C372.343 42.8959 375.635 41.6163 379.754 41.6163C383.46 41.6163 386.425 42.7109 388.648 44.8959C390.872 47.0826 391.983 50.2386 391.983 54.3614V90.3723H407.915V52.3824C407.916 44.3814 405.713 38.1114 401.308 33.5732C396.902 29.0368 391.322 26.7668 384.571 26.7668H384.573Z" fill="black"/>
<path d="M482.154 59.4359C482.154 50.1974 479.207 42.4427 473.322 36.1719C467.434 29.9036 459.961 26.7668 450.903 26.7668C441.348 26.7668 433.527 29.8817 427.434 36.1096C421.339 42.3384 418.292 50.115 418.292 59.435C418.292 68.755 421.379 76.6368 427.556 82.8244C433.732 89.0121 441.925 92.105 452.136 92.105C463.995 92.105 472.97 87.6921 479.065 78.8647L466.218 71.4404C463.087 75.5658 458.476 77.6281 452.384 77.6281C442.914 77.6281 437.107 73.7507 434.968 65.9951H481.536C481.947 63.6866 482.154 61.4999 482.154 59.4359ZM434.721 53.6199C435.626 49.6602 437.479 46.5874 440.279 44.4007C443.078 42.2157 446.62 41.1211 450.903 41.1211C454.525 41.1211 457.758 42.1535 460.599 44.2158C463.44 46.2789 465.312 49.413 466.219 53.6199H434.721Z" fill="black"/>
<path d="M256.305 120.148C254.567 120.148 253.294 120.478 252.486 121.136C251.678 121.794 251.274 122.669 251.274 123.758C251.274 124.454 251.459 125.079 251.829 125.631C252.2 126.183 252.725 126.615 253.405 126.926C254.084 127.236 254.878 127.39 255.784 127.39C256.691 127.39 257.464 127.251 258.107 126.97C258.748 126.691 259.244 126.287 259.591 125.757V127.232H262.265V120.126C262.265 118.402 261.793 117.111 260.849 116.256C259.905 115.401 258.541 114.973 256.758 114.973C255.761 114.973 254.818 115.103 253.925 115.359C253.034 115.617 252.271 115.988 251.637 116.472L252.747 118.538C253.2 118.16 253.755 117.864 254.412 117.652C255.069 117.44 255.737 117.335 256.418 117.335C257.415 117.335 258.166 117.561 258.672 118.015C259.177 118.469 259.431 119.12 259.431 119.968V120.149H256.303L256.305 120.148ZM259.432 123.439C259.205 124.045 258.816 124.51 258.265 124.836C257.714 125.162 257.083 125.324 256.373 125.324C255.663 125.324 255.081 125.173 254.674 124.87C254.266 124.568 254.063 124.159 254.063 123.644C254.063 122.569 254.878 122.033 256.509 122.033H259.432V123.439Z" fill="black"/>
<path d="M276.972 117.378C277.591 117.378 278.161 117.518 278.684 117.797C279.204 118.078 279.638 118.497 279.986 119.058L282.161 117.787C281.708 116.879 281.031 116.183 280.133 115.698C279.234 115.213 278.188 114.971 276.993 114.971C275.725 114.971 274.596 115.237 273.606 115.767C272.617 116.296 271.841 117.031 271.283 117.969C270.723 118.908 270.444 119.974 270.444 121.17C270.444 122.366 270.723 123.436 271.283 124.382C271.841 125.329 272.62 126.066 273.617 126.596C274.613 127.126 275.74 127.39 276.993 127.39C278.172 127.39 279.21 127.145 280.109 126.653C281.008 126.161 281.691 125.46 282.159 124.552L279.984 123.281C279.636 123.842 279.202 124.262 278.682 124.542C278.16 124.821 277.589 124.961 276.971 124.961C275.897 124.961 275.018 124.616 274.33 123.927C273.643 123.239 273.3 122.32 273.3 121.169C273.3 120.018 273.646 119.099 274.342 118.41C275.036 117.722 275.913 117.378 276.972 117.378H276.972Z" fill="black"/>
<path d="M298.285 115.754C297.356 115.233 296.302 114.971 295.124 114.971C293.947 114.971 292.858 115.237 291.907 115.767C290.955 116.296 290.21 117.034 289.675 117.98C289.139 118.926 288.87 119.989 288.87 121.17C288.87 122.351 289.146 123.436 289.697 124.382C290.249 125.329 291.031 126.066 292.042 126.596C293.055 127.126 294.226 127.39 295.555 127.39C296.598 127.39 297.535 127.224 298.365 126.891C299.196 126.558 299.884 126.066 300.428 125.415L298.909 123.667C298.049 124.544 296.953 124.982 295.623 124.982C294.581 124.982 293.709 124.722 293.006 124.199C292.303 123.677 291.868 122.97 291.703 122.077H301.198C301.227 121.714 301.243 121.435 301.243 121.237C301.243 119.996 300.982 118.903 300.461 117.956C299.94 117.01 299.215 116.277 298.286 115.754L298.285 115.754ZM291.679 120.194C291.816 119.301 292.196 118.584 292.824 118.047C293.451 117.511 294.218 117.242 295.124 117.242C296.031 117.242 296.816 117.514 297.436 118.059C298.054 118.604 298.424 119.315 298.545 120.193H291.678L291.679 120.194Z" fill="black"/>
<path d="M318.622 123.644C318.622 122.781 318.4 122.115 317.954 121.647C317.508 121.177 316.977 120.844 316.357 120.648C315.736 120.45 314.944 120.276 313.977 120.124C313.01 119.959 312.296 119.781 311.835 119.592C311.373 119.401 311.144 119.081 311.144 118.627C311.144 118.217 311.359 117.888 311.79 117.639C312.221 117.388 312.852 117.264 313.682 117.264C314.966 117.264 316.122 117.568 317.15 118.172L318.237 116.016C317.708 115.698 317.028 115.444 316.197 115.256C315.366 115.066 314.534 114.971 313.704 114.971C312.072 114.971 310.778 115.316 309.818 116.005C308.858 116.694 308.379 117.613 308.379 118.763C308.379 119.641 308.61 120.326 309.07 120.818C309.53 121.31 310.074 121.654 310.702 121.85C311.329 122.047 312.141 122.222 313.138 122.373C314.09 122.525 314.782 122.684 315.211 122.85C315.642 123.016 315.858 123.311 315.858 123.735C315.858 124.628 315.011 125.074 313.319 125.074C312.58 125.074 311.828 124.966 311.065 124.747C310.302 124.527 309.648 124.236 309.105 123.873L308.018 126.029C308.576 126.422 309.324 126.748 310.262 127.004C311.199 127.262 312.156 127.391 313.139 127.391C314.831 127.391 316.168 127.051 317.151 126.369C318.133 125.689 318.622 124.781 318.622 123.645V123.644Z" fill="black"/>
<path d="M335.733 123.644C335.733 122.781 335.509 122.115 335.064 121.647C334.618 121.177 334.085 120.844 333.467 120.648C332.847 120.45 332.054 120.276 331.087 120.124C330.12 119.959 329.407 119.781 328.945 119.592C328.485 119.401 328.254 119.081 328.254 118.627C328.254 118.217 328.47 117.888 328.9 117.639C329.331 117.388 329.961 117.264 330.793 117.264C332.076 117.264 333.232 117.568 334.26 118.172L335.347 116.016C334.818 115.698 334.139 115.444 333.307 115.256C332.477 115.066 331.646 114.971 330.815 114.971C329.183 114.971 327.887 115.316 326.927 116.005C325.968 116.694 325.489 117.613 325.489 118.763C325.489 119.641 325.718 120.326 326.18 120.818C326.641 121.31 327.185 121.654 327.812 121.85C328.438 122.047 329.251 122.222 330.248 122.373C331.199 122.525 331.89 122.684 332.322 122.85C332.752 123.016 332.967 123.311 332.967 123.735C332.967 124.628 332.121 125.074 330.429 125.074C329.688 125.074 328.937 124.966 328.175 124.747C327.411 124.527 326.759 124.236 326.215 123.873L325.128 126.029C325.686 126.422 326.434 126.748 327.371 127.004C328.308 127.262 329.267 127.391 330.249 127.391C331.941 127.391 333.278 127.051 334.26 126.369C335.243 125.689 335.734 124.781 335.734 123.645L335.733 123.644Z" fill="black"/>
<path d="M346.452 115.108H343.619V127.231H346.452V115.108Z" fill="black"/>
<path d="M345.045 109.706C344.532 109.706 344.101 109.868 343.755 110.194C343.407 110.52 343.232 110.924 343.232 111.408C343.232 111.891 343.407 112.297 343.755 112.621C344.101 112.947 344.532 113.11 345.045 113.11C345.559 113.11 346.008 112.94 346.349 112.6C346.688 112.258 346.859 111.838 346.859 111.339C346.859 110.869 346.685 110.479 346.336 110.17C345.99 109.86 345.558 109.706 345.044 109.706H345.045Z" fill="black"/>
<path d="M365.476 115.743C364.546 115.229 363.492 114.971 362.315 114.971C361.529 114.971 360.808 115.108 360.15 115.381C359.493 115.653 358.923 116.054 358.439 116.584V110.386H355.606V127.232H358.304V125.665C358.772 126.24 359.349 126.673 360.037 126.96C360.724 127.247 361.483 127.391 362.315 127.391C363.493 127.391 364.546 127.134 365.476 126.62C366.405 126.105 367.133 125.375 367.663 124.429C368.191 123.483 368.455 122.397 368.455 121.171C368.455 119.945 368.19 118.863 367.663 117.924C367.133 116.985 366.405 116.26 365.476 115.745V115.743ZM364.569 123.917C363.896 124.613 363.039 124.962 361.996 124.962C361.317 124.962 360.704 124.807 360.161 124.495C359.617 124.185 359.187 123.743 358.869 123.168C358.552 122.593 358.394 121.927 358.394 121.17C358.394 120.414 358.552 119.748 358.869 119.173C359.186 118.598 359.617 118.154 360.161 117.845C360.705 117.534 361.317 117.379 361.996 117.379C363.039 117.379 363.896 117.728 364.569 118.424C365.241 119.119 365.577 120.035 365.577 121.17C365.577 122.305 365.241 123.221 364.569 123.917Z" fill="black"/>
<path d="M379.424 115.108H376.591V127.231H379.424V115.108Z" fill="black"/>
<path d="M378.017 109.706C377.503 109.706 377.073 109.868 376.726 110.194C376.378 110.52 376.204 110.924 376.204 111.408C376.204 111.891 376.378 112.297 376.726 112.621C377.073 112.947 377.503 113.11 378.017 113.11C378.53 113.11 378.98 112.94 379.32 112.6C379.66 112.258 379.83 111.838 379.83 111.339C379.83 110.869 379.656 110.479 379.308 110.17C378.962 109.86 378.529 109.706 378.016 109.706H378.017Z" fill="black"/>
<path d="M391.412 110.386H388.578V127.232H391.412V110.386Z" fill="black"/>
<path d="M403.398 115.108H400.564V127.231H403.398V115.108Z" fill="black"/>
<path d="M401.994 109.706C401.481 109.706 401.049 109.868 400.702 110.194C400.354 110.52 400.182 110.924 400.182 111.408C400.182 111.891 400.355 112.297 400.702 112.621C401.049 112.947 401.481 113.11 401.994 113.11C402.508 113.11 402.958 112.94 403.297 112.6C403.638 112.258 403.807 111.838 403.807 111.339C403.807 110.869 403.633 110.479 403.286 110.17C402.938 109.86 402.508 109.706 401.994 109.706Z" fill="black"/>
<path d="M421.573 116.606C421.105 116.06 420.538 115.653 419.874 115.38C419.208 115.108 418.476 114.971 417.675 114.971C416.512 114.971 415.465 115.229 414.535 115.743C413.607 116.258 412.877 116.984 412.349 117.922C411.82 118.862 411.555 119.942 411.555 121.169C411.555 122.396 411.82 123.481 412.349 124.427C412.877 125.373 413.607 126.104 414.535 126.618C415.464 127.132 416.511 127.389 417.675 127.389C418.505 127.389 419.264 127.245 419.951 126.958C420.639 126.671 421.216 126.239 421.685 125.664V127.23H424.404V110.384H421.572V116.604L421.573 116.606ZM421.142 123.167C420.825 123.742 420.394 124.186 419.85 124.495C419.306 124.806 418.694 124.962 418.015 124.962C417.335 124.962 416.722 124.806 416.179 124.495C415.635 124.185 415.205 123.742 414.887 123.167C414.57 122.593 414.411 121.926 414.411 121.17C414.411 120.414 414.57 119.748 414.887 119.173C415.205 118.598 415.635 118.154 416.179 117.845C416.723 117.534 417.335 117.379 418.015 117.379C418.694 117.379 419.307 117.534 419.85 117.845C420.394 118.155 420.824 118.598 421.142 119.173C421.459 119.748 421.618 120.414 421.618 121.17C421.618 121.926 421.459 122.593 421.142 123.167Z" fill="black"/>
<path d="M438.183 114.971C437.185 114.971 436.242 115.101 435.35 115.357C434.458 115.615 433.695 115.986 433.061 116.47L434.171 118.536C434.625 118.158 435.179 117.862 435.836 117.65C436.493 117.438 437.162 117.333 437.842 117.333C438.84 117.333 439.591 117.559 440.097 118.013C440.601 118.467 440.855 119.118 440.855 119.966V120.147H437.728C435.99 120.147 434.717 120.477 433.909 121.135C433.101 121.793 432.697 122.668 432.697 123.757C432.697 124.453 432.882 125.078 433.252 125.63C433.623 126.182 434.148 126.614 434.828 126.925C435.506 127.235 436.301 127.389 437.207 127.389C438.113 127.389 438.887 127.25 439.53 126.969C440.171 126.69 440.667 126.286 441.014 125.755V127.231H443.688V120.125C443.688 118.4 443.215 117.109 442.272 116.255C441.328 115.4 439.964 114.972 438.181 114.972L438.183 114.971ZM440.857 123.439C440.629 124.045 440.241 124.51 439.69 124.836C439.139 125.162 438.508 125.324 437.798 125.324C437.087 125.324 436.505 125.173 436.099 124.87C435.69 124.568 435.487 124.159 435.487 123.644C435.487 122.569 436.302 122.032 437.934 122.032H440.857V123.439Z" fill="black"/>
<path d="M461.886 116.606C461.418 116.06 460.852 115.653 460.187 115.38C459.521 115.108 458.789 114.971 457.989 114.971C456.825 114.971 455.779 115.229 454.849 115.743C453.921 116.258 453.191 116.984 452.663 117.922C452.133 118.862 451.868 119.942 451.868 121.169C451.868 122.396 452.133 123.481 452.663 124.427C453.191 125.373 453.921 126.104 454.849 126.618C455.778 127.132 456.824 127.389 457.989 127.389C458.819 127.389 459.577 127.245 460.265 126.958C460.953 126.671 461.53 126.239 461.999 125.664V127.23H464.718V110.384H461.885V116.604L461.886 116.606ZM461.456 123.167C461.138 123.742 460.708 124.186 460.163 124.495C459.619 124.806 459.008 124.962 458.328 124.962C457.648 124.962 457.036 124.806 456.493 124.495C455.948 124.185 455.519 123.742 455.2 123.167C454.884 122.593 454.725 121.926 454.725 121.17C454.725 120.414 454.884 119.748 455.2 119.173C455.518 118.598 455.948 118.154 456.493 117.845C457.037 117.534 457.648 117.379 458.328 117.379C459.008 117.379 459.62 117.534 460.163 117.845C460.708 118.155 461.137 118.598 461.456 119.173C461.772 119.748 461.932 120.414 461.932 121.17C461.932 121.926 461.772 122.593 461.456 123.167Z" fill="black"/>
<path d="M485.251 121.237C485.251 119.996 484.99 118.904 484.469 117.957C483.946 117.011 483.222 116.278 482.292 115.754C481.363 115.233 480.309 114.971 479.131 114.971C477.954 114.971 476.865 115.237 475.914 115.767C474.963 116.296 474.218 117.034 473.682 117.98C473.146 118.926 472.877 119.989 472.877 121.17C472.877 122.351 473.153 123.436 473.705 124.382C474.256 125.329 475.038 126.066 476.05 126.596C477.061 127.126 478.233 127.39 479.563 127.39C480.604 127.39 481.541 127.224 482.373 126.891C483.203 126.558 483.89 126.066 484.434 125.415L482.916 123.667C482.054 124.544 480.96 124.982 479.63 124.982C478.587 124.982 477.715 124.722 477.012 124.199C476.309 123.677 475.875 122.97 475.709 122.077H485.204C485.235 121.714 485.25 121.435 485.25 121.237L485.251 121.237ZM475.688 120.194C475.823 119.301 476.205 118.584 476.832 118.047C477.459 117.511 478.226 117.242 479.132 117.242C480.038 117.242 480.824 117.514 481.443 118.059C482.062 118.604 482.433 119.315 482.554 120.193H475.687L475.688 120.194Z" fill="black"/>
<path d="M261.154 143.849C260.686 143.304 260.12 142.897 259.455 142.624C258.789 142.352 258.057 142.215 257.256 142.215C256.093 142.215 255.046 142.473 254.116 142.987C253.188 143.502 252.459 144.228 251.93 145.166C251.401 146.105 251.136 147.186 251.136 148.413C251.136 149.64 251.401 150.725 251.93 151.671C252.459 152.616 253.188 153.347 254.116 153.862C255.045 154.376 256.092 154.633 257.256 154.633C258.086 154.633 258.845 154.489 259.533 154.202C260.22 153.914 260.798 153.483 261.266 152.907V154.474H263.985V137.628H261.153V143.848L261.154 143.849ZM260.723 150.41C260.406 150.985 259.975 151.429 259.431 151.738C258.887 152.049 258.275 152.205 257.596 152.205C256.916 152.205 256.303 152.049 255.76 151.738C255.216 151.428 254.786 150.985 254.468 150.41C254.151 149.836 253.992 149.169 253.992 148.413C253.992 147.657 254.151 146.991 254.468 146.416C254.786 145.841 255.216 145.397 255.76 145.088C256.304 144.777 256.916 144.622 257.596 144.622C258.275 144.622 258.888 144.777 259.431 145.088C259.975 145.398 260.405 145.841 260.723 146.416C261.04 146.991 261.199 147.657 261.199 148.413C261.199 149.169 261.04 149.836 260.723 150.41Z" fill="black"/>
<path d="M274.569 136.949C274.055 136.949 273.624 137.111 273.276 137.437C272.928 137.763 272.756 138.167 272.756 138.651C272.756 139.135 272.929 139.54 273.276 139.865C273.623 140.191 274.055 140.353 274.569 140.353C275.082 140.353 275.532 140.184 275.871 139.843C276.212 139.501 276.381 139.081 276.381 138.582C276.381 138.113 276.207 137.723 275.861 137.413C275.512 137.103 275.082 136.949 274.569 136.949Z" fill="black"/>
<path d="M275.975 142.352H273.142V154.475H275.975V142.352Z" fill="black"/>
<path d="M294.444 143.962C293.96 143.373 293.36 142.934 292.641 142.647C291.924 142.359 291.127 142.215 290.251 142.215C289.102 142.215 288.064 142.457 287.135 142.941C286.206 143.427 285.474 144.111 284.937 144.997C284.4 145.882 284.132 146.899 284.132 148.05C284.132 149.201 284.4 150.222 284.937 151.115C285.473 152.007 286.205 152.7 287.135 153.191C288.064 153.684 289.103 153.93 290.251 153.93C291.082 153.93 291.845 153.793 292.54 153.521C293.235 153.248 293.823 152.848 294.306 152.318V152.955C294.306 154.196 293.997 155.118 293.378 155.723C292.758 156.329 291.783 156.632 290.453 156.632C289.623 156.632 288.803 156.499 287.995 156.234C287.187 155.969 286.518 155.618 285.989 155.179L284.721 157.313C285.401 157.874 286.261 158.301 287.304 158.596C288.346 158.892 289.449 159.038 290.613 159.038C294.963 159.038 297.139 156.905 297.139 152.637V142.352H294.442V143.964L294.444 143.962ZM293.322 150.559C292.634 151.203 291.754 151.523 290.682 151.523C289.609 151.523 288.706 151.203 288.02 150.559C287.331 149.916 286.987 149.079 286.987 148.05C286.987 147.021 287.33 146.211 288.02 145.576C288.706 144.941 289.594 144.622 290.682 144.622C291.769 144.622 292.634 144.941 293.322 145.576C294.009 146.211 294.353 147.036 294.353 148.05C294.353 149.064 294.008 149.916 293.322 150.559Z" fill="black"/>
<path d="M307.723 136.949C307.209 136.949 306.778 137.111 306.431 137.437C306.082 137.763 305.91 138.167 305.91 138.651C305.91 139.135 306.083 139.54 306.431 139.865C306.777 140.191 307.209 140.353 307.723 140.353C308.236 140.353 308.686 140.184 309.025 139.843C309.367 139.501 309.535 139.081 309.535 138.582C309.535 138.113 309.361 137.723 309.015 137.413C308.667 137.103 308.236 136.949 307.723 136.949Z" fill="black"/>
<path d="M309.127 142.352H306.293V154.475H309.127V142.352Z" fill="black"/>
<path d="M323.176 152.296C322.632 152.296 322.217 152.141 321.931 151.83C321.643 151.519 321.499 151.07 321.499 150.478V144.712H324.741V142.442H321.499V139.673H318.667V142.442H316.673V144.712H318.667V150.547C318.667 151.879 319.029 152.894 319.754 153.59C320.48 154.285 321.507 154.633 322.837 154.633C323.365 154.633 323.868 154.566 324.343 154.429C324.819 154.293 325.224 154.089 325.555 153.816L324.763 151.796C324.34 152.129 323.811 152.296 323.176 152.296H323.176Z" fill="black"/>
<path d="M337.953 142.215C336.956 142.215 336.013 142.345 335.12 142.601C334.229 142.859 333.466 143.23 332.832 143.714L333.942 145.78C334.395 145.402 334.95 145.106 335.607 144.894C336.264 144.682 336.932 144.577 337.613 144.577C338.61 144.577 339.362 144.803 339.867 145.257C340.372 145.711 340.626 146.362 340.626 147.21V147.391H337.498C335.761 147.391 334.488 147.721 333.679 148.379C332.871 149.037 332.468 149.912 332.468 151.001C332.468 151.697 332.652 152.322 333.022 152.874C333.393 153.426 333.918 153.858 334.598 154.169C335.277 154.479 336.071 154.633 336.978 154.633C337.884 154.633 338.657 154.494 339.3 154.213C339.942 153.934 340.438 153.53 340.784 152.999V154.475H343.458V147.369C343.458 145.644 342.986 144.353 342.042 143.499C341.098 142.644 339.734 142.216 337.951 142.216L337.953 142.215ZM340.627 150.683C340.399 151.289 340.011 151.754 339.46 152.08C338.908 152.406 338.278 152.568 337.567 152.568C336.857 152.568 336.275 152.417 335.868 152.114C335.46 151.812 335.257 151.402 335.257 150.888C335.257 149.813 336.072 149.276 337.704 149.276H340.627V150.683Z" fill="black"/>
<path d="M355.356 137.629H352.522V154.475H355.356V137.629Z" fill="black"/>
</g>
<defs>
<clipPath id="clip0_40000583_3291">
<rect width="485.25" height="159" fill="white" transform="translate(0 0.0371094)"/>
</clipPath>
</defs>
</svg>
