<svg width="16" height="16" viewBox="0 0 16 16" fill="none" xmlns="http://www.w3.org/2000/svg">
<path d="M13.6332 2.32804C12.8996 1.58732 12.026 1.00001 11.0632 0.600331C10.1004 0.200649 9.06765 -0.00341053 8.02518 4.3116e-05C3.65719 4.3116e-05 0.0972031 3.56003 0.0972031 7.92802C0.0972031 9.32802 0.465202 10.688 1.1532 11.888L0.0332031 16L4.23319 14.896C5.39319 15.528 6.69719 15.864 8.02518 15.864C12.3932 15.864 15.9532 12.304 15.9532 7.93602C15.9532 5.81603 15.1292 3.82403 13.6332 2.32804ZM8.02518 14.52C6.84118 14.52 5.68119 14.2 4.66519 13.6L4.42519 13.456L1.9292 14.112L2.5932 11.68L2.4332 11.432C1.77524 10.3817 1.42594 9.16744 1.4252 7.92802C1.4252 4.29603 4.38519 1.33604 8.01718 1.33604C9.77718 1.33604 11.4332 2.02404 12.6732 3.27203C13.2873 3.88312 13.7739 4.61007 14.1049 5.41069C14.4358 6.21132 14.6045 7.06969 14.6012 7.93602C14.6172 11.568 11.6572 14.52 8.02518 14.52ZM11.6412 9.59202C11.4412 9.49602 10.4652 9.01602 10.2892 8.94402C10.1052 8.88002 9.97718 8.84802 9.84118 9.04002C9.70518 9.24002 9.32918 9.68802 9.21718 9.81602C9.10518 9.95202 8.98518 9.96802 8.78518 9.86402C8.58518 9.76802 7.94518 9.55202 7.19318 8.88002C6.60119 8.35202 6.20919 7.70402 6.08919 7.50402C5.97719 7.30402 6.07319 7.20002 6.17719 7.09602C6.26519 7.00802 6.37719 6.86402 6.47319 6.75203C6.56919 6.64003 6.60919 6.55203 6.67319 6.42403C6.73719 6.28803 6.70519 6.17603 6.65719 6.08003C6.60919 5.98403 6.20919 5.00803 6.04919 4.60803C5.88919 4.22403 5.72119 4.27203 5.60119 4.26403H5.21719C5.08119 4.26403 4.87319 4.31203 4.68919 4.51203C4.51319 4.71203 4.00119 5.19203 4.00119 6.16803C4.00119 7.14402 4.71319 8.08802 4.80919 8.21602C4.90519 8.35202 6.20919 10.352 8.19318 11.208C8.66518 11.416 9.03318 11.536 9.32118 11.624C9.79318 11.776 10.2252 11.752 10.5692 11.704C10.9532 11.648 11.7452 11.224 11.9052 10.76C12.0732 10.296 12.0732 9.90402 12.0172 9.81602C11.9612 9.72802 11.8412 9.68802 11.6412 9.59202Z" fill="#075e54"/>
</svg>
