<svg width="24" height="17" viewBox="0 0 24 17" fill="none" xmlns="http://www.w3.org/2000/svg">
  <g clip-path="url(#clip0_40000494_3115)">
    <path
      d="M9.71739 8.62695H8.49576C8.40552 8.62695 8.32657 8.68678 8.30205 8.77359L7.02206 13.3193L5.79062 8.77555C5.76708 8.68776 5.68714 8.62695 5.59642 8.62695H4.21393C4.1232 8.62695 4.04327 8.68776 4.01973 8.77555L2.78731 13.3222L2.35672 11.3855C2.3322 11.2992 2.25325 11.2394 2.16301 11.2394H0.92814C0.864876 11.2394 0.805045 11.2693 0.766793 11.3198C0.72854 11.3703 0.71677 11.4366 0.734916 11.4974L1.89966 15.7713C1.92467 15.8572 2.00362 15.9155 2.09239 15.9155H3.47487C3.56462 15.9155 3.64358 15.8562 3.6681 15.7699L4.89757 11.4964L6.12705 15.7699C6.15206 15.8562 6.23053 15.9155 6.32027 15.9155H7.70276C7.79201 15.9155 7.87097 15.8567 7.89598 15.7709L9.90963 8.88491C9.92729 8.8241 9.91552 8.75838 9.87776 8.70787C9.8395 8.65736 9.78016 8.62744 9.7169 8.62744L9.71739 8.62695Z"
      fill="#005757" />
    <path
      d="M17.9857 10.4564C17.8121 9.98271 17.5708 9.57027 17.2692 9.2309C17.2687 9.22992 17.2677 9.22943 17.2672 9.22844C16.9543 8.8876 16.5772 8.61837 16.1461 8.42857C15.715 8.23927 15.234 8.14315 14.7161 8.14315C14.2345 8.14315 13.7789 8.23437 13.361 8.41484C13.0835 8.535 12.8226 8.68997 12.5818 8.8778V5.94167C12.5818 5.83035 12.4915 5.7406 12.3807 5.7406H11.1591C11.0478 5.7406 10.958 5.83084 10.958 5.94167V15.4587C10.958 15.57 11.0482 15.6598 11.1591 15.6598H12.3807C12.492 15.6598 12.5818 15.5695 12.5818 15.4587V15.1743C12.8226 15.3665 13.0835 15.5234 13.3615 15.6431C13.7789 15.8231 14.2345 15.9148 14.7166 15.9148C15.2344 15.9148 15.7155 15.8187 16.1466 15.6294C16.5777 15.4396 16.9553 15.1703 17.2716 14.8251C17.5723 14.4774 17.8131 14.061 17.9862 13.5882C18.1593 13.116 18.2466 12.5893 18.2466 12.0223C18.2466 11.4554 18.1588 10.9287 17.9862 10.4564H17.9857ZM15.997 13.8075C15.64 14.2415 15.1599 14.4524 14.5282 14.4524C13.8966 14.4524 13.4027 14.2518 13.0506 13.8384C12.6951 13.4215 12.5146 12.8104 12.5146 12.0223C12.5146 11.2342 12.6951 10.6369 13.0506 10.2201C13.4027 9.80714 13.8863 9.60607 14.5282 9.60607C15.1702 9.60607 15.6395 9.81891 15.9965 10.2568C16.3585 10.7012 16.5419 11.2951 16.5419 12.0223C16.5419 12.7496 16.3585 13.3676 15.997 13.8075Z"
      fill="#005757" />
    <path
      d="M14.7571 5.08855H14.759C15.0994 5.08855 15.376 4.81293 15.377 4.47258L15.3838 2.19313C15.3848 1.8518 15.1092 1.57471 14.7679 1.57373H14.7659C14.4256 1.57373 14.149 1.84934 14.148 2.18969L14.1411 4.46915C14.1401 4.81048 14.4157 5.08757 14.7571 5.08855Z"
      fill="#005757" stroke="#005757" stroke-width="0.0490417" stroke-miterlimit="10" />
    <path
      d="M18.9448 7.10698C19.1023 7.10698 19.2597 7.04715 19.3803 6.92749L20.9967 5.3204C21.2385 5.0796 21.24 4.68874 20.9992 4.44696C20.7584 4.20519 20.3675 4.20372 20.1258 4.44451L18.5093 6.05161C18.2676 6.2924 18.2661 6.68326 18.5069 6.92504C18.6275 7.04666 18.7864 7.10747 18.9448 7.10747V7.10698Z"
      fill="#005757" stroke="#005757" stroke-width="0.0490417" stroke-miterlimit="10" />
    <path
      d="M23.3593 10.2113L21.0799 10.2044H21.0779C20.7375 10.2044 20.4609 10.48 20.46 10.8204C20.459 11.1617 20.7346 11.4388 21.0759 11.4398L23.3554 11.4466H23.3573C23.6977 11.4466 23.9743 11.171 23.9753 10.8307C23.9763 10.4893 23.7006 10.2123 23.3593 10.2113Z"
      fill="#005757" stroke="#005757" stroke-width="0.0490417" stroke-miterlimit="10" />
  </g>
  <defs>
    <clipPath id="clip0_40000494_3115">
      <rect width="23.2734" height="16" fill="white" transform="translate(0.726562 0.666748)" />
    </clipPath>
  </defs>
</svg>