<svg width="125" height="25" viewBox="0 0 125 25" fill="none" xmlns="http://www.w3.org/2000/svg">
  <path d="M25.5736 0.40979H0V24.5045H25.5736V0.40979Z" fill="#F363F7" />
  <path d="M59.1473 15.8103H33.5737V24.2804H59.1473V15.8103Z" fill="#0077C9" />
  <path d="M59.1473 0.63385H33.5737V9.1039H59.1473V0.63385Z" fill="#0077C9" />
  <path
    d="M78.9772 24.2869C85.5106 24.2869 90.8069 18.9905 90.8069 12.4571C90.8069 5.92374 85.5106 0.62738 78.9772 0.62738C72.4438 0.62738 67.1475 5.92374 67.1475 12.4571C67.1475 18.9905 72.4438 24.2869 78.9772 24.2869Z"
    fill="#FF7029" />
  <path
    d="M98.8066 0V8.13112H110.084L99.0497 19.1649L104.8 24.9143L111.701 18.0129L111.769 17.9449L115.57 14.1435V24.1804H124.031V0H98.8066Z"
    fill="#FFC62E" />
</svg>