<svg width="162" height="176" viewBox="0 0 162 176" fill="none" xmlns="http://www.w3.org/2000/svg">
<path d="M40.4258 166.59C41.4908 166.59 42.3958 166.745 43.1458 167.055C43.2508 167.1 43.3058 167.21 43.2858 167.32L43.0758 168.49C43.0508 168.635 42.9008 168.72 42.7608 168.67C42.0808 168.435 41.3758 168.315 40.6408 168.315C40.1958 168.315 39.8008 168.375 39.4458 168.485C39.0908 168.6 38.7908 168.78 38.5358 169.025C38.2858 169.27 38.0908 169.58 37.9508 169.955C37.8158 170.33 37.7458 170.78 37.7458 171.3C37.7458 172.22 37.9858 172.915 38.4708 173.385C38.9508 173.855 39.6608 174.09 40.6008 174.09C40.8058 174.09 41.0008 174.075 41.1858 174.045C41.3708 174.015 41.5258 173.975 41.6508 173.93V171.7C41.6508 171.57 41.7558 171.46 41.8908 171.46H43.3608C43.4908 171.46 43.6008 171.565 43.6008 171.7V174.95C43.6008 175.045 43.5508 175.13 43.4608 175.17C43.1058 175.33 42.6658 175.46 42.1458 175.565C41.5558 175.685 40.9458 175.745 40.3058 175.745C39.5608 175.745 38.9008 175.635 38.3158 175.42C37.7308 175.205 37.2358 174.9 36.8308 174.51C36.4258 174.12 36.1108 173.655 35.8958 173.11C35.6808 172.565 35.5708 171.96 35.5708 171.3C35.5708 170.59 35.6808 169.95 35.8958 169.37C36.1108 168.79 36.4308 168.295 36.8458 167.885C37.2608 167.475 37.7708 167.155 38.3708 166.93C38.9708 166.705 39.6558 166.59 40.4258 166.59Z" fill="white"/>
<path d="M62.0658 173.875H59.0358C58.9308 173.875 58.8358 173.945 58.8058 174.045L58.3708 175.42C58.3408 175.52 58.2458 175.59 58.1408 175.59H56.4208C56.2508 175.59 56.1358 175.42 56.1958 175.265L59.3058 166.91C59.3408 166.815 59.4308 166.755 59.5308 166.755H61.5858C61.6858 166.755 61.7758 166.82 61.8108 166.91L64.9208 175.265C64.9808 175.425 64.8608 175.59 64.6958 175.59H62.9758C62.8708 175.59 62.7808 175.525 62.7458 175.425L62.2958 174.045C62.2658 173.945 62.1708 173.88 62.0658 173.88V173.875ZM59.7408 172.15H61.3558C61.5158 172.15 61.6358 171.995 61.5858 171.84L60.7808 169.185C60.7108 168.955 60.3858 168.955 60.3208 169.185L59.5058 171.84C59.4558 171.995 59.5758 172.15 59.7358 172.15H59.7408Z" fill="white"/>
<path d="M83.416 174.18H81.621C81.531 174.18 81.446 174.13 81.406 174.045L80.151 171.47C80.041 171.245 79.711 171.315 79.696 171.56L79.491 175.355C79.486 175.48 79.381 175.58 79.251 175.58H77.601C77.461 175.58 77.351 175.46 77.361 175.32L77.986 166.965C77.996 166.84 78.101 166.745 78.226 166.745H79.816C79.911 166.745 79.991 166.8 80.031 166.885L82.296 171.69C82.381 171.875 82.641 171.875 82.731 171.69L84.996 166.885C85.036 166.8 85.121 166.745 85.211 166.745H86.801C86.926 166.745 87.031 166.84 87.041 166.965L87.666 175.32C87.676 175.46 87.566 175.58 87.426 175.58H85.776C85.651 175.58 85.541 175.48 85.536 175.355L85.331 171.56C85.316 171.315 84.986 171.245 84.876 171.47L83.621 174.045C83.581 174.13 83.496 174.18 83.406 174.18H83.416Z" fill="white"/>
<path d="M100.941 166.75H105.966C106.101 166.75 106.206 166.86 106.206 166.99V168.235C106.206 168.37 106.096 168.475 105.966 168.475H103.116C102.981 168.475 102.876 168.585 102.876 168.715V170.015C102.876 170.15 102.986 170.255 103.116 170.255H105.806C105.941 170.255 106.046 170.365 106.046 170.495V171.74C106.046 171.875 105.936 171.98 105.806 171.98H103.116C102.981 171.98 102.876 172.09 102.876 172.22V173.625C102.876 173.76 102.986 173.865 103.116 173.865H106.006C106.141 173.865 106.246 173.975 106.246 174.105V175.35C106.246 175.485 106.136 175.59 106.006 175.59H100.941C100.806 175.59 100.701 175.48 100.701 175.35V166.995C100.701 166.86 100.811 166.755 100.941 166.755V166.75Z" fill="white"/>
<path d="M125.135 172.945C125.135 173.335 125.055 173.7 124.905 174.04C124.75 174.38 124.525 174.675 124.235 174.93C123.945 175.18 123.59 175.38 123.175 175.525C122.76 175.67 122.285 175.745 121.755 175.745C121.27 175.745 120.78 175.69 120.295 175.585C119.88 175.495 119.49 175.37 119.125 175.205C119.02 175.155 118.965 175.035 118.995 174.92L119.31 173.73C119.35 173.585 119.5 173.515 119.64 173.575C119.885 173.68 120.145 173.77 120.43 173.85C120.82 173.96 121.24 174.015 121.69 174.015C122.06 174.015 122.365 173.945 122.605 173.81C122.845 173.675 122.965 173.45 122.965 173.14C122.965 172.92 122.86 172.72 122.655 172.535C122.445 172.355 122.07 172.16 121.52 171.96C120.655 171.635 120.02 171.26 119.62 170.84C119.22 170.42 119.025 169.885 119.025 169.23C119.025 168.37 119.305 167.715 119.87 167.265C120.43 166.815 121.21 166.59 122.2 166.59C122.705 166.59 123.185 166.645 123.645 166.755C124.03 166.845 124.36 166.96 124.645 167.1C124.745 167.15 124.795 167.26 124.77 167.37L124.505 168.535C124.47 168.68 124.315 168.76 124.175 168.7C123.94 168.605 123.69 168.52 123.425 168.455C123.06 168.36 122.68 168.315 122.29 168.315C121.965 168.315 121.7 168.37 121.5 168.48C121.3 168.59 121.2 168.78 121.2 169.045C121.2 169.17 121.215 169.275 121.255 169.365C121.29 169.455 121.355 169.535 121.445 169.615C121.54 169.695 121.67 169.775 121.835 169.855C122.005 169.935 122.215 170.025 122.47 170.135C122.84 170.285 123.19 170.445 123.52 170.615C123.845 170.785 124.13 170.98 124.37 171.2C124.61 171.42 124.795 171.675 124.935 171.955C125.07 172.24 125.14 172.57 125.14 172.95L125.135 172.945Z" fill="white"/>
<path d="M0.745723 127.155C0.655723 112.63 12.5457 103.645 26.4457 104.155C28.3907 104.225 30.0057 104.995 29.8407 107.13C29.6807 109.2 30.2507 111.955 27.0907 112.53C25.5207 112.815 23.9007 112.8 22.3107 112.985C17.0457 113.61 12.1907 118.525 11.0707 124.325C9.98572 129.94 12.1157 135.52 17.1307 137.51C19.9857 138.645 23.5557 138.44 26.7307 138.08C28.7957 137.845 29.4057 135.65 29.3157 134.445C29.2307 133.335 27.3507 131.78 26.0057 131.445C21.9107 130.43 20.2457 128.08 21.9307 124.13C22.4057 123.015 24.2557 121.93 25.5607 121.81C31.3207 121.28 36.2857 124.46 38.0357 129.395C39.9657 134.84 37.8207 142.175 33.0907 145.195C26.2557 149.56 19.0607 149.345 12.0057 145.825C4.38572 142.02 0.865723 135.55 0.740723 127.14L0.745723 127.155Z" fill="white"/>
<path d="M124.506 129.765C124.506 120.17 124.431 110.14 124.556 100.11C124.591 97.1802 126.151 96.3502 129.601 96.4952C132.371 96.6152 132.731 98.2902 132.616 100.51C132.431 104.045 132.346 107.585 132.166 111.125C132.056 113.27 132.766 114.14 135.111 113.815C146.541 112.245 158.086 124.035 161.141 135.325C161.801 137.77 159.626 141.085 156.741 141.775C153.951 142.445 153.576 140.19 152.891 138.36C151.821 135.51 149.531 129.12 148.446 126.28C146.536 121.295 138.286 119.455 135.306 121.195C134.261 121.805 133.476 123.745 133.461 125.085C133.396 131.075 133.666 137.075 133.766 143.07C133.781 143.94 133.646 144.85 133.391 145.685C132.606 148.205 130.601 148.755 128.256 148.71C125.916 148.665 125.616 146.905 125.491 145.235C125.106 140.235 124.846 135.22 124.516 129.77L124.506 129.765Z" fill="white"/>
<path d="M75.236 140.68C75.236 136.195 75.246 131.715 75.236 127.23C75.226 124.35 76.326 123.6 78.726 123.635C81.026 123.665 83.536 123.755 83.626 126.9C83.886 135.855 84.121 144.81 84.121 153.765C84.121 157.52 82.556 158.595 78.811 158.39C75.881 158.23 74.316 157.03 74.446 153.81C74.621 149.44 75.216 145.06 75.216 140.685H75.241L75.236 140.68Z" fill="white"/>
<path d="M84.5004 114.615C84.5004 118.12 83.4254 119.2 79.9254 119.225C75.5704 119.255 74.0554 117.965 74.0904 114.26C74.1304 110.4 75.5104 108.8 78.8004 108.785C83.0704 108.77 84.5104 110.24 84.5054 114.62L84.5004 114.615Z" fill="white"/>
<path d="M85.8661 121.28C88.1961 112.95 94.881 110.015 105.771 109.405C113.456 108.97 119.781 113.91 122.631 121.82C123.566 124.425 124.431 127.11 124.851 129.83C125.726 135.535 123.906 140.53 119.416 144.125C111.501 150.46 102.436 151.01 93.026 148.395C89.116 147.31 86.726 144.36 85.701 140.545C83.081 129.525 85.871 121.285 85.871 121.285L85.8661 121.28ZM93.081 130.92C93.081 132.205 92.951 133.5 93.106 134.765C93.596 138.8 97.8611 142.975 101.616 143.22C106.321 143.525 114.216 138.92 116.276 134.67C118.501 130.075 117.561 125.83 113.456 121.935C108.701 117.42 103.301 116.46 98.236 119.11C93.326 121.675 92.816 126.14 93.081 130.925V130.92Z" fill="white"/>
<path d="M103.811 123.64C107.806 123.645 109.956 125.08 109.941 127.725C109.926 130.4 107.041 132.535 103.431 132.545C100.546 132.55 98.891 130.905 98.841 127.99C98.791 124.97 100.316 123.635 103.811 123.64Z" fill="white"/>
<path d="M72.7056 134.945C67.7556 132.455 62.9206 131.185 58.1306 128.405C54.5956 126.355 54.6606 124.79 56.9656 121.48C60.0706 117.03 59.7056 112.58 55.7406 110.28C51.7506 107.965 47.4656 107.03 42.7606 108.185C39.9856 108.865 39.1206 110.205 39.0806 112.985C38.9306 123.76 38.5956 134.535 38.2356 145.31C38.0056 152.23 38.0306 152.32 45.0106 151.865C45.1156 151.86 45.2206 151.855 45.3256 151.855C47.2706 151.865 48.1456 150.975 48.1106 148.96C48.0356 144.875 48.0656 140.79 48.1206 136.7C48.1356 135.505 48.3756 134.315 48.6006 132.325C53.8756 135.52 58.5656 138.37 63.2656 141.21C69.7206 145.115 68.2556 146.19 73.6206 139.24C75.1356 137.28 75.1506 136.175 72.7106 134.945H72.7056ZM49.7456 119.045C48.2006 119.045 47.3106 118.165 47.2856 116.6C47.2606 114.98 48.0756 114.26 49.9506 114.265C52.0956 114.265 53.2456 115.035 53.2406 116.455C53.2306 117.89 51.6856 119.035 49.7456 119.04V119.045Z" fill="white"/>
<path d="M123.431 17.415V19.495H119.546V21.405H117.536V15.435H115.491V17.415H113.616V19.425H111.741V17.445H109.796V23.31H111.741V25.255H111.726V27.22H109.761V29.105H98.1357V27.095H96.0207V25.29H94.1457V19.46H96.0207V15.505H98.1357V7.7H96.0907V5.72H94.0457V3.845H86.3107V5.79H84.4007V9.815H82.5257V19.565H84.4007V21.44H82.4907V23.385H76.4907V21.44H72.7107V19.565H68.9657V17.38H66.8157V13.6H68.9307V9.715H70.8757V7.705H66.8507V5.83H63.1407V1.875H61.0607V3.885H59.1857V1.975H57.3107V0H55.2657V3.85H53.3557V19.53H55.3357V21.405H59.1857V23.385H61.2657V25.155H63.1407V31.4H61.2657V41.08H59.2857V50.76H61.2657V54.405H53.1457V52.53H47.4207V54.405H45.5457V58.36H43.5657V62.315H41.9007V66.27H39.8207V67.935H37.8407V70.12H35.7607V72.1H39.6107V70.055H41.5907V71.965H43.5007V73.91H47.3157V71.975H49.2157V73.91H51.3457V66.105H49.4357V64.23H51.3457V62.285H57.3157V64.195H72.7557V66.105H74.6657V70.165H72.7907V72.005H70.8807V75.89H68.9707V77.73H66.7857V79.71H70.8807V77.765H74.6257V75.855H78.6157V74.015H80.5257V72.07H82.5057V70.195H84.4507V68.045H92.2557V70.09H98.1557V72H101.971V77.83H103.881V79.67H100.066V81.75H98.1207V83.695H96.0407V85.605H100.066V89.385H103.881V87.51H107.976V89.385H109.921V87.475H111.796V77.76H113.671V68.045H109.821V66.135H105.761V60.375H107.911V56.315H109.821V50.625H111.731V42.82H109.821V36.82H119.606V35.015H121.481V29.08H123.461V23.355H125.301V17.42H123.461L123.431 17.415ZM70.9057 40.9H68.9557V52.585H66.7957V48.55H64.9207V40.95H66.7957L66.7807 36.89H68.9557V34.99H70.9057V40.895V40.9ZM84.4407 38.87H82.5907V48.575H80.5107V56.38H76.5807V44.69H78.6607V33.145H80.5107V31.14H82.5907V29.06H84.4407V38.87ZM94.1607 46.665H92.2007V54.47H90.3257V60.37H86.3007V56.38H88.4507V46.665H90.3257V36.95H92.2007V33.065V31.155H94.1807V33.065H96.1257V36.95H94.1657V46.665H94.1607ZM103.931 54.47H101.951V56.38H100.111V58.22H98.1657V60.37H96.1207V54.47H98.1657V46.63H100.021V38.86H102.051V40.87H103.926V54.47H103.931Z" fill="white"/>
</svg>
