<svg width="84" height="84" viewBox="0 0 84 84" fill="none" xmlns="http://www.w3.org/2000/svg">
<path d="M82.2457 16.3658V18.3205H78.6011V20.1155H76.7154V14.5051H74.797V16.3658H73.038V18.2547H71.279V16.394H69.4543V21.9057H71.279V23.7335H71.2649V25.5801H69.4215V27.3516H58.5157V25.4627H56.5316V23.7664H54.7726V18.2876H56.5316V14.5709H58.5157V7.23611H56.5973V5.3754H54.6788V3.61336H47.4224V5.44118H45.6306V9.22369H43.8716V18.3863H45.6306V20.1483H43.8387V21.9762H38.21V20.1483H34.6638V18.3863H31.1505V16.3329H29.1336V12.7807H31.1177V9.12972H32.9424V7.24081H29.1664V5.47877H25.686V1.76204H23.7346V3.65095H21.9757V1.85602H20.2167V0H18.2982V3.61806H16.5064V18.3534H18.3639V20.1155H21.9757V21.9762H23.927V23.6395H25.686V29.5083H23.927V38.6051H22.0695V47.702H23.927V51.1274H16.3094V49.3653H10.9386V51.1274H9.17958V54.8441H7.32209V58.5608H5.76011V62.2776H3.8088V63.8423H1.95131V65.8956H0V67.7563H3.6118V65.8345H5.46929V67.6295H7.26111V69.4573H10.8401V67.6389H12.6225V69.4573H14.6207V62.1225H12.8289V60.3605H14.6207V58.5326H20.2214V60.3276H34.7061V62.1225H36.4979V65.9379H34.7389V67.6671H32.9471V71.318H31.1552V73.0472H29.1054V74.9079H32.9471V73.08H36.4604V71.2851H40.2035V69.556H41.9953V67.7281H43.8528V65.9661H45.6775V63.9456H52.9996V65.8674H58.5345V67.6624H62.1135V73.1411H63.9053V74.8703H60.3263V76.825H58.5017V78.6528H56.5504V80.4477H60.3263V84H63.9053V82.238H67.7469V84H69.5716V82.2051H71.3306V73.0753H73.0896V63.9456H69.4778V62.1507H65.669V56.7377H67.686V52.9223H69.4778V47.5751H71.2696V40.2403H69.4778V34.6018H78.6574V32.9055H80.4164V27.3281H82.2738V21.948H84V16.3705H82.2738L82.2457 16.3658ZM32.9705 38.436H31.1412V49.417H29.1148V45.6251H27.3558V38.483H29.1148L29.1007 34.6676H31.1412V32.882H32.9705V38.4313V38.436ZM45.6681 36.5283H43.9325V45.6486H41.9812V52.9834H38.2944V41.9976H40.2457V31.1482H41.9812V29.264H43.9325V27.3093H45.6681V36.5283ZM54.7867 43.8537H52.948V51.1885H51.189V56.733H47.413V52.9834H49.43V43.8537H51.189V34.7239H52.948V31.073V29.2781H54.8054V31.073H56.6301V34.7239H54.7914V43.8537H54.7867ZM63.9522 51.1885H62.0947V52.9834H60.3685V54.7125H58.5439V56.733H56.6254V51.1885H58.5439V43.8208H60.2841V36.5189H62.1885V38.4078H63.9475V51.1885H63.9522Z" fill="black"/>
</svg>
