<svg width="193" height="42" viewBox="0 0 193 42" fill="none" xmlns="http://www.w3.org/2000/svg">
<path d="M41.6601 0.649902H0.310059V41.9999H41.6601V0.649902Z" fill="white"/>
<path d="M142.74 21.3249C142.74 9.90642 133.484 0.649902 122.065 0.649902C110.647 0.649902 101.39 9.90642 101.39 21.3249C101.39 32.7434 110.647 41.9999 122.065 41.9999C133.484 41.9999 142.74 32.7434 142.74 21.3249Z" fill="white"/>
<path d="M151.65 0.649902V15.9399H166.89L151.65 31.1799L162.47 41.9999L177.71 26.7599V41.9999H193V0.649902H151.65Z" fill="white"/>
<path d="M92.2701 0.649902H50.9201V16.8399H92.2701V0.649902Z" fill="white"/>
<path d="M92.2701 25.8099H50.9201V41.9999H92.2701V25.8099Z" fill="white"/>
</svg>
